<svg width="124" height="76" viewBox="0 0 124 76" fill="none" xmlns="http://www.w3.org/2000/svg">
<g clip-path="url(#clip0_43_7099)">
<rect width="124" height="76" rx="8" fill="url(#paint0_linear_43_7099)"/>
<circle opacity="0.2" cx="138.5" cy="-10.5" r="68" stroke="white"/>
<path fill-rule="evenodd" clip-rule="evenodd" d="M12.4833 59.9494C12.4781 59.9494 12.4729 59.9493 12.4677 59.9493C12.4573 59.9493 12.4469 59.9492 12.4365 59.9494H12.4833Z" fill="white"/>
<path d="M16.7247 66.5053C16.7247 65.9606 16.2788 65.519 15.7288 65.519C15.5085 65.519 15.305 65.5898 15.14 65.7097C15.0642 65.7963 14.9842 65.8791 14.9002 65.9579C14.2703 66.5489 13.4196 66.9114 12.4833 66.9114C10.5421 66.9114 8.96838 65.3529 8.96838 63.4304C8.96838 61.5079 10.5421 59.9494 12.4833 59.9494H12.4365C12.4469 59.9492 12.4573 59.9493 12.4677 59.9493C12.4729 59.9493 12.4781 59.9494 12.4833 59.9494H18.0135C18.5571 59.9494 18.9977 59.513 18.9977 58.9747C18.9977 58.4364 18.5571 58 18.0135 58H12.5068C12.4833 58 12.4599 58.0001 12.4365 58.0004C9.42756 58.0377 7 60.4649 7 63.4536C7 66.4655 9.4839 68.9536 12.5068 68.9072C15.5296 68.8608 16.7264 69.3249 16.7247 66.5053Z" fill="white"/>
<path d="M14.4986 62.9198C14.4986 63.6632 13.8901 64.2658 13.1395 64.2658C12.3888 64.2658 11.7803 63.6632 11.7803 62.9198C11.7803 62.1765 12.3888 61.5738 13.1395 61.5738C13.8901 61.5738 14.4986 62.1765 14.4986 62.9198Z" fill="white"/>
<path d="M15.9308 64.1128C16.1191 64.2106 16.3334 64.2658 16.5607 64.2658C17.3113 64.2658 17.9198 63.6632 17.9198 62.9198C17.9198 62.1765 17.3113 61.5738 16.5607 61.5738C16.2108 61.5738 15.8919 61.7047 15.651 61.9198C15.375 62.1661 15.2016 62.5229 15.2016 62.9198C15.2016 63.4381 15.4973 63.8879 15.9308 64.1128Z" fill="white"/>
<path d="M20.9661 61.6203C19.879 61.6203 18.9977 62.493 18.9977 63.5696V68.0253C18.9977 68.5636 19.4384 69 19.9819 69C20.5255 69 20.9661 68.5636 20.9661 68.0253V63.4768C20.9661 63.4768 20.9265 62.6633 21.1301 62.2932C21.3338 61.9231 22.0206 61.6203 22.0206 61.6203H20.9661Z" fill="white"/>
<path fill-rule="evenodd" clip-rule="evenodd" d="M25.6996 69C27.7444 69 29.402 67.3584 29.402 65.3333C29.402 63.3083 27.7444 61.6667 25.6996 61.6667C23.6548 61.6667 21.9972 63.3083 21.9972 65.3333C21.9972 67.3584 23.6548 69 25.6996 69ZM25.6996 67.0506C26.6573 67.0506 27.4336 66.2818 27.4336 65.3333C27.4336 64.3849 26.6573 63.616 25.6996 63.616C24.7419 63.616 23.9655 64.3849 23.9655 65.3333C23.9655 66.2818 24.7419 67.0506 25.6996 67.0506Z" fill="white"/>
<path d="M32.9185 68.7053C33.4184 68.4938 33.6505 67.9211 33.437 67.426L32.542 65.3512L31.6471 67.426C31.4336 67.9211 31.6657 68.4938 32.1656 68.7053C32.2885 68.7573 32.4162 68.7826 32.542 68.7838C32.6679 68.7826 32.7956 68.7573 32.9185 68.7053Z" fill="white"/>
<path fill-rule="evenodd" clip-rule="evenodd" d="M29.4913 63.2406C29.2777 62.7456 29.5099 62.1729 30.0097 61.9614C30.5096 61.75 31.0879 61.9798 31.3014 62.4749L32.542 65.3512L31.6471 67.426C31.4336 67.9211 31.6657 68.4938 32.1656 68.7053C32.2885 68.7573 32.4162 68.7826 32.542 68.7838C32.1562 68.7876 31.7878 68.5651 31.6268 68.1918L29.4913 63.2406ZM34.697 65.3176L33.4573 68.1918C33.2962 68.5651 32.9278 68.7876 32.542 68.7838C32.6679 68.7826 32.7956 68.7573 32.9185 68.7053C33.4184 68.4938 33.6505 67.9211 33.437 67.426L32.542 65.3512L33.7827 62.4749C33.9962 61.9798 34.5745 61.75 35.0743 61.9614C35.2255 62.0253 35.3521 62.1223 35.4494 62.2401C35.175 61.9441 34.7319 61.8363 34.3376 62.0031C33.8377 62.2146 33.6056 62.7873 33.8191 63.2823L34.697 65.3176ZM36.8699 68.8255C36.4841 68.8293 36.1156 68.6068 35.9546 68.2335L34.697 65.3176L35.5928 63.2406C35.7418 62.8952 35.6738 62.5121 35.4494 62.2401C35.5228 62.3193 35.5842 62.4121 35.6292 62.5166L36.8699 65.3929L35.9749 67.4678C35.7614 67.9628 35.9935 68.5355 36.4934 68.747C36.6163 68.799 36.744 68.8243 36.8699 68.8255ZM36.8699 68.8255C37.2557 68.8293 37.6241 68.6068 37.7851 68.2335L39.9206 63.2823C40.1342 62.7873 39.902 62.2146 39.4022 62.0031C38.9023 61.7917 38.324 62.0216 38.1105 62.5166L36.8699 65.3929L37.7648 67.4678C37.9783 67.9628 37.7462 68.5355 37.2463 68.747C37.1234 68.799 36.9957 68.8243 36.8699 68.8255Z" fill="white"/>
<path d="M34.3376 62.0031C33.8377 62.2146 33.6056 62.7873 33.8191 63.2823L34.697 65.3176L35.5928 63.2406C35.7418 62.8952 35.6738 62.5121 35.4494 62.2401C35.175 61.9441 34.7319 61.8363 34.3376 62.0031Z" fill="white"/>
<path d="M37.2463 68.747C37.7462 68.5355 37.9783 67.9628 37.7648 67.4678L36.8699 65.3929L35.9749 67.4678C35.7614 67.9628 35.9935 68.5355 36.4934 68.747C36.6163 68.799 36.744 68.8243 36.8699 68.8255C36.9957 68.8243 37.1234 68.799 37.2463 68.747Z" fill="white"/>
<path d="M7.53125 19V16.5742L5.53125 13.3633H6.33203L7.85156 15.8672H7.91406L9.43359 13.3633H10.2344L8.23438 16.5742V19H7.53125ZM12.2031 19.0742C11.8047 19.0742 11.4596 18.987 11.168 18.8125C10.8789 18.6354 10.6549 18.3841 10.4961 18.0586C10.3398 17.7331 10.2617 17.3464 10.2617 16.8984V16.8906C10.2617 16.4401 10.3398 16.0521 10.4961 15.7266C10.6549 15.401 10.8789 15.151 11.168 14.9766C11.4596 14.8021 11.8047 14.7148 12.2031 14.7148C12.6042 14.7148 12.9492 14.8021 13.2383 14.9766C13.5273 15.151 13.75 15.401 13.9062 15.7266C14.0651 16.0521 14.1445 16.4401 14.1445 16.8906V16.8984C14.1445 17.3464 14.0651 17.7331 13.9062 18.0586C13.75 18.3841 13.5273 18.6354 13.2383 18.8125C12.9492 18.987 12.6042 19.0742 12.2031 19.0742ZM12.2031 18.4727C12.4688 18.4727 12.694 18.4102 12.8789 18.2852C13.0638 18.1602 13.2044 17.9805 13.3008 17.7461C13.3997 17.5117 13.4492 17.2292 13.4492 16.8984V16.8906C13.4492 16.5573 13.3997 16.2734 13.3008 16.0391C13.2044 15.8047 13.0638 15.6263 12.8789 15.5039C12.694 15.3789 12.4688 15.3164 12.2031 15.3164C11.9375 15.3164 11.7122 15.3789 11.5273 15.5039C11.3424 15.6263 11.2005 15.8047 11.1016 16.0391C11.0052 16.2734 10.957 16.5573 10.957 16.8906V16.8984C10.957 17.2292 11.0052 17.5117 11.1016 17.7461C11.2005 17.9805 11.3424 18.1602 11.5273 18.2852C11.7122 18.4102 11.9375 18.4727 12.2031 18.4727ZM16.6094 19.0742C16.2917 19.0742 16.0247 19.0143 15.8086 18.8945C15.5924 18.7721 15.4297 18.5951 15.3203 18.3633C15.2135 18.1289 15.1602 17.8464 15.1602 17.5156V14.7891H15.8398V17.3516C15.8398 17.7292 15.9128 18.0104 16.0586 18.1953C16.207 18.3802 16.4492 18.4727 16.7852 18.4727C16.9701 18.4727 17.1328 18.4453 17.2734 18.3906C17.4167 18.3359 17.5365 18.2578 17.6328 18.1562C17.7292 18.0521 17.8008 17.9271 17.8477 17.7812C17.8971 17.6328 17.9219 17.4661 17.9219 17.2812V14.7891H18.6016V19H17.9219V18.3711H17.8594C17.7917 18.5195 17.6992 18.6471 17.582 18.7539C17.4648 18.8581 17.3242 18.9375 17.1602 18.9922C16.9987 19.0469 16.8151 19.0742 16.6094 19.0742ZM19.8711 19V14.7891H20.5508V15.4141H20.6133C20.694 15.1927 20.8307 15.0208 21.0234 14.8984C21.2161 14.776 21.4544 14.7148 21.7383 14.7148C21.8034 14.7148 21.8672 14.7188 21.9297 14.7266C21.9948 14.7318 22.0443 14.737 22.0781 14.7422V15.4023C22.0078 15.3893 21.9388 15.3802 21.8711 15.375C21.806 15.3672 21.7357 15.3633 21.6602 15.3633C21.444 15.3633 21.2526 15.4062 21.0859 15.4922C20.9193 15.5781 20.7878 15.6979 20.6914 15.8516C20.5977 16.0052 20.5508 16.1849 20.5508 16.3906V19H19.8711ZM25.6055 19V18.3789H27.3477C27.7721 18.3789 28.0938 18.2943 28.3125 18.125C28.5312 17.9557 28.6406 17.7096 28.6406 17.3867V17.3789C28.6406 17.1628 28.5898 16.9818 28.4883 16.8359C28.3867 16.6901 28.2344 16.5807 28.0312 16.5078C27.8307 16.4349 27.5807 16.3984 27.2812 16.3984H25.6055V15.793H27.082C27.5091 15.793 27.8294 15.7174 28.043 15.5664C28.2591 15.4154 28.3672 15.1914 28.3672 14.8945V14.8867C28.3672 14.6003 28.2695 14.3789 28.0742 14.2227C27.8815 14.0638 27.6107 13.9844 27.2617 13.9844H25.6055V13.3633H27.4102C27.7565 13.3633 28.0534 13.4206 28.3008 13.5352C28.5508 13.6497 28.7422 13.8125 28.875 14.0234C29.0104 14.2318 29.0781 14.4792 29.0781 14.7656V14.7734C29.0781 14.9688 29.0339 15.1523 28.9453 15.3242C28.8594 15.4961 28.7435 15.6406 28.5977 15.7578C28.4518 15.875 28.2878 15.9505 28.1055 15.9844V16.0469C28.3633 16.0781 28.5859 16.1549 28.7734 16.2773C28.9609 16.3997 29.1055 16.5586 29.207 16.7539C29.3112 16.9466 29.3633 17.1667 29.3633 17.4141V17.4219C29.3633 17.75 29.2865 18.0326 29.1328 18.2695C28.9818 18.5039 28.7643 18.6849 28.4805 18.8125C28.1966 18.9375 27.8542 19 27.4531 19H25.6055ZM25.2539 19V13.3633H25.957V19H25.2539ZM31.582 19.0742C31.3164 19.0742 31.0768 19.0234 30.8633 18.9219C30.6523 18.8203 30.4844 18.6758 30.3594 18.4883C30.237 18.3008 30.1758 18.0794 30.1758 17.8242V17.8164C30.1758 17.5664 30.2357 17.3529 30.3555 17.1758C30.4753 16.9961 30.6497 16.8555 30.8789 16.7539C31.1081 16.6523 31.3854 16.5924 31.7109 16.5742L33.2578 16.4805V17.0234L31.793 17.1172C31.4727 17.1354 31.2383 17.2018 31.0898 17.3164C30.944 17.431 30.8711 17.5924 30.8711 17.8008V17.8086C30.8711 18.0221 30.9518 18.1888 31.1133 18.3086C31.2747 18.4258 31.4779 18.4844 31.7227 18.4844C31.9544 18.4844 32.1602 18.4388 32.3398 18.3477C32.5195 18.2539 32.6602 18.1276 32.7617 17.9688C32.8659 17.8099 32.918 17.6302 32.918 17.4297V16.1172C32.918 15.8568 32.8385 15.6589 32.6797 15.5234C32.5234 15.3854 32.2878 15.3164 31.9727 15.3164C31.7201 15.3164 31.513 15.362 31.3516 15.4531C31.1901 15.5417 31.082 15.668 31.0273 15.832L31.0234 15.8438H30.3438L30.3477 15.8203C30.3841 15.599 30.4753 15.4062 30.6211 15.2422C30.7695 15.0755 30.9609 14.9466 31.1953 14.8555C31.4297 14.7617 31.6966 14.7148 31.9961 14.7148C32.3398 14.7148 32.6302 14.7708 32.8672 14.8828C33.1068 14.9948 33.2878 15.1562 33.4102 15.3672C33.5352 15.5755 33.5977 15.8255 33.5977 16.1172V19H32.918V18.3789H32.8555C32.7669 18.5273 32.6589 18.6536 32.5312 18.7578C32.4062 18.862 32.2643 18.9414 32.1055 18.9961C31.9466 19.0482 31.7721 19.0742 31.582 19.0742ZM34.8789 19V13.1172H35.5586V19H34.8789ZM38.0195 19.0742C37.7539 19.0742 37.5143 19.0234 37.3008 18.9219C37.0898 18.8203 36.9219 18.6758 36.7969 18.4883C36.6745 18.3008 36.6133 18.0794 36.6133 17.8242V17.8164C36.6133 17.5664 36.6732 17.3529 36.793 17.1758C36.9128 16.9961 37.0872 16.8555 37.3164 16.7539C37.5456 16.6523 37.8229 16.5924 38.1484 16.5742L39.6953 16.4805V17.0234L38.2305 17.1172C37.9102 17.1354 37.6758 17.2018 37.5273 17.3164C37.3815 17.431 37.3086 17.5924 37.3086 17.8008V17.8086C37.3086 18.0221 37.3893 18.1888 37.5508 18.3086C37.7122 18.4258 37.9154 18.4844 38.1602 18.4844C38.3919 18.4844 38.5977 18.4388 38.7773 18.3477C38.957 18.2539 39.0977 18.1276 39.1992 17.9688C39.3034 17.8099 39.3555 17.6302 39.3555 17.4297V16.1172C39.3555 15.8568 39.276 15.6589 39.1172 15.5234C38.9609 15.3854 38.7253 15.3164 38.4102 15.3164C38.1576 15.3164 37.9505 15.362 37.7891 15.4531C37.6276 15.5417 37.5195 15.668 37.4648 15.832L37.4609 15.8438H36.7812L36.7852 15.8203C36.8216 15.599 36.9128 15.4062 37.0586 15.2422C37.207 15.0755 37.3984 14.9466 37.6328 14.8555C37.8672 14.7617 38.1341 14.7148 38.4336 14.7148C38.7773 14.7148 39.0677 14.7708 39.3047 14.8828C39.5443 14.9948 39.7253 15.1562 39.8477 15.3672C39.9727 15.5755 40.0352 15.8255 40.0352 16.1172V19H39.3555V18.3789H39.293C39.2044 18.5273 39.0964 18.6536 38.9688 18.7578C38.8438 18.862 38.7018 18.9414 38.543 18.9961C38.3841 19.0482 38.2096 19.0742 38.0195 19.0742ZM41.2773 19V14.7891H41.957V15.4219H42.0195C42.1263 15.1979 42.2799 15.0247 42.4805 14.9023C42.681 14.7773 42.9362 14.7148 43.2461 14.7148C43.7201 14.7148 44.0833 14.8503 44.3359 15.1211C44.5911 15.3893 44.7188 15.7734 44.7188 16.2734V19H44.0391V16.4375C44.0391 16.0573 43.9583 15.776 43.7969 15.5938C43.638 15.4089 43.3906 15.3164 43.0547 15.3164C42.8307 15.3164 42.6367 15.3646 42.4727 15.4609C42.3086 15.5573 42.181 15.694 42.0898 15.8711C42.0013 16.0482 41.957 16.2604 41.957 16.5078V19H41.2773ZM47.6719 19.0742C47.2786 19.0742 46.9375 18.9844 46.6484 18.8047C46.3594 18.625 46.1354 18.3711 45.9766 18.043C45.8177 17.7148 45.7383 17.3281 45.7383 16.8828V16.875C45.7383 16.4375 45.8164 16.0573 45.9727 15.7344C46.1315 15.4115 46.3555 15.1615 46.6445 14.9844C46.9336 14.8047 47.2747 14.7148 47.668 14.7148C48.0091 14.7148 48.3034 14.7747 48.5508 14.8945C48.7982 15.0143 48.9961 15.1758 49.1445 15.3789C49.293 15.5794 49.388 15.8047 49.4297 16.0547L49.4336 16.0781H48.7578L48.7539 16.0664C48.7018 15.8581 48.5833 15.681 48.3984 15.5352C48.2135 15.3893 47.9701 15.3164 47.668 15.3164C47.4154 15.3164 47.1966 15.3802 47.0117 15.5078C46.8268 15.6354 46.6836 15.8164 46.582 16.0508C46.4831 16.2826 46.4336 16.5573 46.4336 16.875V16.8828C46.4336 17.2057 46.4844 17.487 46.5859 17.7266C46.6875 17.9635 46.8307 18.1471 47.0156 18.2773C47.2005 18.4076 47.418 18.4727 47.668 18.4727C47.9518 18.4727 48.1836 18.4115 48.3633 18.2891C48.543 18.1667 48.6719 17.9883 48.75 17.7539L48.7578 17.7305L49.4297 17.7266L49.4219 17.7695C49.3646 18.0221 49.263 18.2474 49.1172 18.4453C48.9714 18.6406 48.7786 18.7943 48.5391 18.9062C48.2995 19.0182 48.0104 19.0742 47.6719 19.0742ZM52.1445 19.0742C51.7435 19.0742 51.3984 18.9857 51.1094 18.8086C50.8229 18.6315 50.6016 18.3815 50.4453 18.0586C50.2917 17.7331 50.2148 17.3503 50.2148 16.9102V16.9062C50.2148 16.4714 50.2917 16.0898 50.4453 15.7617C50.6016 15.4336 50.8216 15.1771 51.1055 14.9922C51.3893 14.8073 51.7214 14.7148 52.1016 14.7148C52.4844 14.7148 52.8125 14.8034 53.0859 14.9805C53.362 15.1576 53.5729 15.4049 53.7188 15.7227C53.8672 16.0378 53.9414 16.4049 53.9414 16.8242V17.0898H50.5664V16.5469H53.5938L53.2578 17.043V16.7734C53.2578 16.4427 53.2083 16.1706 53.1094 15.957C53.0104 15.7435 52.8737 15.5846 52.6992 15.4805C52.5247 15.3737 52.3242 15.3203 52.0977 15.3203C51.8711 15.3203 51.668 15.3763 51.4883 15.4883C51.3112 15.5977 51.1706 15.7604 51.0664 15.9766C50.9622 16.1927 50.9102 16.4583 50.9102 16.7734V17.043C50.9102 17.3424 50.9609 17.599 51.0625 17.8125C51.1641 18.0234 51.3086 18.1862 51.4961 18.3008C51.6836 18.4128 51.9049 18.4688 52.1602 18.4688C52.3503 18.4688 52.5156 18.4427 52.6562 18.3906C52.7969 18.3385 52.9128 18.2721 53.0039 18.1914C53.0951 18.1107 53.1589 18.0286 53.1953 17.9453L53.2109 17.9102H53.8906L53.8828 17.9414C53.8464 18.0846 53.7812 18.224 53.6875 18.3594C53.5964 18.4922 53.4779 18.6133 53.332 18.7227C53.1862 18.8294 53.013 18.9154 52.8125 18.9805C52.6146 19.043 52.3919 19.0742 52.1445 19.0742ZM55.5508 19.0391C55.4128 19.0391 55.293 18.9896 55.1914 18.8906C55.0924 18.7891 55.043 18.6693 55.043 18.5312C55.043 18.3906 55.0924 18.2708 55.1914 18.1719C55.293 18.0729 55.4128 18.0234 55.5508 18.0234C55.6914 18.0234 55.8112 18.0729 55.9102 18.1719C56.0091 18.2708 56.0586 18.3906 56.0586 18.5312C56.0586 18.6693 56.0091 18.7891 55.9102 18.8906C55.8112 18.9896 55.6914 19.0391 55.5508 19.0391ZM55.5508 16.0156C55.4128 16.0156 55.293 15.9661 55.1914 15.8672C55.0924 15.7656 55.043 15.6458 55.043 15.5078C55.043 15.3672 55.0924 15.2474 55.1914 15.1484C55.293 15.0495 55.4128 15 55.5508 15C55.6914 15 55.8112 15.0495 55.9102 15.1484C56.0091 15.2474 56.0586 15.3672 56.0586 15.5078C56.0586 15.6458 56.0091 15.7656 55.9102 15.8672C55.8112 15.9661 55.6914 16.0156 55.5508 16.0156Z" fill="white"/>
<circle opacity="0.2" cx="165.5" cy="-1.5" r="67" stroke="white"/>
</g>
<defs>
<linearGradient id="paint0_linear_43_7099" x1="-14.2235" y1="-4.17073" x2="145.155" y2="51.0492" gradientUnits="userSpaceOnUse">
<stop stop-color="#187259"/>
<stop offset="1" stop-color="#022E22"/>
</linearGradient>
<clipPath id="clip0_43_7099">
<rect width="124" height="76" rx="8" fill="white"/>
</clipPath>
</defs>
</svg>
